HIERARCHY
ROOT Hips
{
	OFFSET 0.000000 0.000000 0.000000
	CHANNELS 6 Xposition Yposition Zposition Zrotation Yrotation Xrotation 
	JOINT LeftUpLeg_virtual
	{
		OFFSET 0.000000 0.000000 0.000000
		CHANNELS 3 Zrotation Yrotation Xrotation
		JOINT LeftUpLeg
		{
			OFFSET 10.205400 -3.823500 0.155100
			CHANNELS 3 Zrotation Yrotation Xrotation
			JOINT LeftLeg
			{
				OFFSET 0.708757 -12.982077 0.567790
				CHANNELS 3 Zrotation Yrotation Xrotation
				JOINT LeftFoot
				{
					OFFSET -0.708756 -10.717838 -2.184338
					CHANNELS 3 Zrotation Yrotation Xrotation
					JOINT LeftToeBase
					{
						OFFSET 0.108149 -7.191104 7.560241
						CHANNELS 3 Zrotation Yrotation Xrotation
						End Site
						{
							OFFSET 0.000000 0.000000 0.000000
						}
					}
				}
			}
		}
	}
	JOINT RightUpLeg_virtual
	{
		OFFSET 0.000000 0.000000 0.000000
		CHANNELS 3 Zrotation Yrotation Xrotation
		JOINT RightUpLeg
		{
			OFFSET -10.205400 -3.823500 0.005500
			CHANNELS 3 Zrotation Yrotation Xrotation
			JOINT RightLeg
			{
				OFFSET -0.708756 -12.982134 0.610632
				CHANNELS 3 Zrotation Yrotation Xrotation
				JOINT RightFoot
				{
					OFFSET 0.708754 -10.717769 -1.945823
					CHANNELS 3 Zrotation Yrotation Xrotation
					JOINT RightToeBase
					{
						OFFSET -0.108140 -7.191069 7.372968
						CHANNELS 3 Zrotation Yrotation Xrotation
						End Site
						{
							OFFSET 0.000000 0.000000 0.000000
						}
					}
				}
			}
		}
	}
	JOINT Spine_virtual
	{
		OFFSET 0.000000 0.000000 0.000000
		CHANNELS 3 Zrotation Yrotation Xrotation
		JOINT Spine
		{
			OFFSET 0.000000 6.876099 0.125700
			CHANNELS 3 Zrotation Yrotation Xrotation
			JOINT Spine1
			{
				OFFSET 0.000000 8.022060 0.146608
				CHANNELS 3 Zrotation Yrotation Xrotation
				JOINT Spine2
				{
					OFFSET 0.000000 9.168068 0.167552
					CHANNELS 3 Zrotation Yrotation Xrotation
					JOINT Neck_virtual
					{
						OFFSET 0.000000 0.000000 0.000000
						CHANNELS 3 Zrotation Yrotation Xrotation
						JOINT Neck
						{
							OFFSET 0.000000 10.314075 0.188496
							CHANNELS 3 Zrotation Yrotation Xrotation
							JOINT Head
							{
								OFFSET 0.000000 7.643700 -2.377400
								CHANNELS 3 Zrotation Yrotation Xrotation
								End Site
								{
									OFFSET 0.000000 0.000000 0.000000
								}
							}
						}
					}
					JOINT LeftShoulder_virtual
					{
						OFFSET 0.000000 0.000000 0.000000
						CHANNELS 3 Zrotation Yrotation Xrotation
						JOINT LeftShoulder
						{
							OFFSET 4.392200 8.824978 0.174984
							CHANNELS 3 Zrotation Yrotation Xrotation
							JOINT LeftArm
							{
								OFFSET 8.771219 -2.981674 -0.026999
								CHANNELS 3 Zrotation Yrotation Xrotation
								JOINT LeftForeArm
								{
									OFFSET 8.512804 0.000000 -0.000000
									CHANNELS 3 Zrotation Yrotation Xrotation
									JOINT LeftHand
									{
										OFFSET 18.484802 0.000000 -0.000000
										CHANNELS 3 Zrotation Yrotation Xrotation
										End Site
										{
											OFFSET 0.000000 0.000000 0.000000
										}
									}
								}
							}
						}
					}
					JOINT RightShoulder_virtual
					{
						OFFSET 0.000000 0.000000 0.000000
						CHANNELS 3 Zrotation Yrotation Xrotation
						JOINT RightShoulder
						{
							OFFSET -4.392200 8.824993 0.141379
							CHANNELS 3 Zrotation Yrotation Xrotation
							JOINT RightArm
							{
								OFFSET -8.771282 -2.981682 -0.094208
								CHANNELS 3 Zrotation Yrotation Xrotation
								JOINT RightForeArm
								{
									OFFSET -8.494598 0.000000 0.000000
									CHANNELS 3 Zrotation Yrotation Xrotation
									JOINT RightHand
									{
										OFFSET -18.483803 0.000000 0.000001
										CHANNELS 3 Zrotation Yrotation Xrotation
										End Site
										{
											OFFSET 0.000000 0.000000 0.000000
										}
									}
								}
							}
						}
					}
				}
			}
		}
	}
}
MOTION
Frames: 4
Frame Time: 0.033333
-2.854069 24.575893 -10.791030 179.892389 6.772589 -179.867131 1.663280 -3.050934 4.330488 -2.784103 1.317302 -66.290879 13.311819 5.248646 71.734595 -1.402392 -4.250575 0.625370 0.000000 0.000000 0.000000 4.901230 0.274558 4.490493 5.632250 -4.182260 -68.352032 0.611868 3.002178 72.585117 -2.172608 4.054653 5.404980 0.000000 0.000000 0.000000 1.219972 0.914889 0.996681 1.740439 0.106825 -1.801250 -0.884239 -2.048585 4.844102 -0.006269 0.013841 0.015740 -1.233619 -0.687566 7.124024 -3.860221 -2.138861 17.745718 0.000000 0.000000 0.000000 0.555326 -0.214447 3.629351 -7.633135 -3.538582 1.082356 -56.000936 13.693564 12.490081 167.539636 -87.938440 -154.068304 0.000000 0.000000 0.000000 -3.201013 0.900927 2.849101 16.755837 6.598711 -0.359642 57.241087 -12.296286 -6.185754 -173.410676 71.863029 179.443850 0.000000 0.000000 0.000000 
-2.849828 24.532339 -10.755085 179.924996 6.741097 -179.834482 1.744665 -3.195420 4.091811 -2.770611 1.408072 -66.187955 13.223854 5.251151 71.915711 -1.369033 -4.143468 0.516930 0.000000 0.000000 0.000000 4.915220 0.185923 4.286070 5.656494 -4.014993 -68.236103 0.574283 2.938947 72.576613 -2.205426 3.981210 5.301681 0.000000 0.000000 0.000000 1.285218 0.905559 0.560654 1.730300 0.085256 -2.186950 -0.898453 -2.118156 4.788662 0.005521 -0.011408 0.012235 -1.265364 -0.700356 7.195873 -3.795118 -2.068917 18.673928 0.000000 0.000000 0.000000 0.509727 -0.275094 3.636385 -7.731195 -3.210298 1.011179 -55.988778 14.187792 12.559787 170.300180 -87.671229 -156.834134 0.000000 0.000000 0.000000 -3.228282 0.850296 2.859603 17.214409 6.566881 -0.345802 57.872056 -13.176739 -5.997809 -173.328017 72.028648 179.653318 0.000000 0.000000 0.000000 
-2.854865 24.486134 -10.693728 179.927086 6.797076 -179.946224 1.766851 -3.311696 3.949707 -2.727696 1.512167 -65.970304 13.316592 5.356029 71.606255 -1.312429 -4.143425 0.891327 0.000000 0.000000 0.000000 4.785461 0.103982 4.201408 5.855791 -4.077652 -67.927420 0.789979 2.800068 72.033825 -1.691867 4.308088 3.611188 0.000000 0.000000 0.000000 1.317943 0.854947 0.451831 1.702462 0.079663 -2.698266 -0.927196 -2.166903 4.860264 -0.023498 -0.024830 0.030038 -1.263474 -0.744856 7.190640 -3.741279 -1.864960 19.525376 0.000000 0.000000 0.000000 0.533126 -0.227042 3.624699 -7.827997 -2.934328 0.907219 -56.019900 14.530073 12.593075 173.366676 -87.460627 -159.839062 0.000000 0.000000 0.000000 -3.230894 0.843047 2.857930 17.704545 6.597022 -0.288044 58.376438 -13.740459 -6.149674 -173.330735 72.186405 179.778925 0.000000 0.000000 0.000000 
-2.866964 24.443171 -10.618556 179.944462 6.894863 -179.904765 1.835650 -3.394357 3.834610 -2.684083 1.528582 -65.964676 13.443739 5.426534 71.556381 -1.031028 -3.860242 1.154256 0.000000 0.000000 0.000000 4.807123 0.045491 4.054344 5.933133 -4.100125 -67.795822 0.741551 2.693318 71.472670 -1.649314 4.197437 3.480843 0.000000 0.000000 0.000000 1.366170 0.818656 0.236859 1.684794 0.125583 -3.066606 -0.941365 -2.163390 4.853341 0.035983 -0.007024 0.017900 -1.353885 -0.840365 7.258274 -3.716573 -1.934005 20.274588 0.000000 0.000000 0.000000 0.438858 -0.301661 3.679557 -7.942411 -2.827842 0.895751 -56.105479 14.815237 12.600420 175.197357 -87.256903 -161.548167 0.000000 0.000000 0.000000 -3.316853 0.781892 2.884770 18.167017 6.593315 -0.225109 58.889543 -14.103477 -6.540790 -173.448897 72.265765 179.783106 0.000000 0.000000 0.000000 
